<?xml version="1.0" encoding="utf-8"?>
<!-- Generator: Adobe Illustrator 18.1.0, SVG Export Plug-In . SVG Version: 6.00 Build 0)  -->
<!DOCTYPE svg PUBLIC "-//W3C//DTD SVG 1.1//EN" "http://www.w3.org/Graphics/SVG/1.1/DTD/svg11.dtd">
<svg version="1.1" id="Layer_1" xmlns="http://www.w3.org/2000/svg" xmlns:xlink="http://www.w3.org/1999/xlink" x="0px" y="0px"
	 width="101px" height="101px" viewBox="-14.5 0.8 101 101" enable-background="new -14.5 0.8 101 101" xml:space="preserve">
<g id="Layer_1_1_" display="none">
	<g id="ZHlEps.tif" display="inline">
		
			<image overflow="visible" enable-background="new    " width="143" height="181" id="Layer_0_1_" xlink:href="FC8431306CA84B8A.png"  transform="matrix(0.4409 0 0 0.4107 9.093 16.5804)">
		</image>
	</g>
</g>
<g id="Layer_2">
	<path fill="none" stroke="#B20907" stroke-miterlimit="10" d="M64.1,20.4V83c0,0-24.1,14.5-57.1,0V20.4"/>
	<path fill="none" stroke="#B20907" stroke-miterlimit="10" d="M64.1,20.4c0,3.8-12,6.9-28.1,6.9s-29-3-29-6.9s13-6.9,29.1-6.9
		S64.1,16.6,64.1,20.4z"/>
</g>
<path fill="none" stroke="#B20907" stroke-miterlimit="10" d="M14.1,61.9c0,0-5.4,18.6,25.4,5.8c0,0,16-6,17.8-3.5
	c0,0,0.6-8.5,1.9-9s-9.2,1-17.4,4.8S14.1,67.5,14.1,61.9z"/>
<path fill="none" stroke="#B20907" stroke-miterlimit="10" d="M56.9,43.5c-3.1-7-14.8-8.6-26.2-3.6c-11.4,5-18.2,14.7-15.2,21.7
	c0.5,1.1,1.1,2,2,2.8c4,0.4,10-0.2,19.1-2.5c0,0,9.6-3.7,17.5-5.9C57.3,51.9,58.6,47.3,56.9,43.5z"/>
<circle fill="none" stroke="#B20907" stroke-miterlimit="10" cx="36" cy="51.2" r="50"/>
</svg>
